<?xml version="1.0" encoding="UTF-8"?>
<svg id="Layer_2" data-name="Layer 2" xmlns="http://www.w3.org/2000/svg" viewBox="0 0 539.79 61.77">
  <defs>
    <style>
      .cls-1 {
        fill: #d821bc;
      }

      .cls-2 {
        fill: #333;
      }
    </style>
  </defs>
  <g id="Layer_1-2" data-name="Layer 1">
    <g>
      <g>
        <path class="cls-2" d="m59.55,6.1v29.1h-6.9V6.1h-11.7V.7h30.3v5.4h-11.7Z"/>
        <path class="cls-2" d="m82.59,35.2V.7h6.9v34.5h-6.9Z"/>
        <path class="cls-2" d="m141.6,35.2h-6.9v-15.95c0-3.6,0-8.2.1-11.8-.85,3.6-2.1,8.2-3.2,11.75l-4.85,16h-7.5l-4.95-16.05c-1.05-3.5-2.3-8.1-3.1-11.65.1,3.6.1,8.15.1,11.75v15.95h-6.9V.7h10.9l7.8,28.15,7.8-28.15h10.7v34.5Z"/>
        <path class="cls-2" d="m183.25,24.9c0,6.4-4.85,9.45-9.45,10.1-1.75.2-2.85.2-4.8.2h-12.55V.7h12.35c1.75,0,2.75,0,4.45.2,5.6.7,8.7,3.95,8.7,8.6,0,3.55-1.9,5.9-5.35,7.1,4.45,1.15,6.65,3.85,6.65,8.3Zm-19.9-10.05h5.2c.85,0,1.65-.05,2.45-.15,2.5-.4,3.75-1.8,3.75-4.3s-1.6-3.85-3.9-4.15c-.8-.1-1.7-.15-2.5-.15h-5v8.75Zm12.65,10.1c0-3.2-1.95-4.55-4.45-4.8-.85-.1-1.65-.15-2.45-.15h-5.75v9.75h6c.8,0,1.65,0,2.3-.05,2.4-.2,4.35-1.85,4.35-4.75Z"/>
        <path class="cls-2" d="m221.4,35.2h-24.9V.7h24.4v5.4h-17.5v9.1h16.25v5.45h-16.25v9.1h18v5.45Z"/>
        <path class="cls-2" d="m262,35.2h-7.55c-.85-2.35-1.35-4.45-1.7-7.7-.45-3.7-1.85-5.95-4.65-6.15-.95-.05-1.8-.05-2.7-.05h-4v13.9h-6.9V.7h12.6c2,0,3.3.05,5,.25,5,.6,9.05,3.2,9.05,9.15,0,4.45-2.65,7.25-6.75,8.4,3.4,1.3,4.7,4.15,5.1,8,.45,4.2,1.1,6.75,2.5,8.7Zm-15.85-19.05c1.2,0,2.05,0,2.8-.05,2.75-.25,4.95-1.6,4.95-4.95s-1.85-4.55-4.55-4.9c-.8-.1-1.65-.15-2.9-.15h-5.05v10.05h4.75Z"/>
        <path class="cls-2" d="m318.79,35.2h-7.55c-.85-2.35-1.35-4.45-1.7-7.7-.45-3.7-1.85-5.95-4.65-6.15-.95-.05-1.8-.05-2.7-.05h-4v13.9h-6.9V.7h12.6c2,0,3.3.05,5,.25,5,.6,9.05,3.2,9.05,9.15,0,4.45-2.65,7.25-6.75,8.4,3.4,1.3,4.7,4.15,5.1,8,.45,4.2,1.1,6.75,2.5,8.7Zm-15.85-19.05c1.2,0,2.05,0,2.8-.05,2.75-.25,4.95-1.6,4.95-4.95s-1.85-4.55-4.55-4.9c-.8-.1-1.65-.15-2.9-.15h-5.05v10.05h4.75Z"/>
        <path class="cls-2" d="m363.39,17.95c0,10.8-6.45,17.95-17.05,17.95s-17.05-7.15-17.05-17.95,6.4-17.95,17.05-17.95,17.05,7.1,17.05,17.95Zm-7.25,0c0-8.1-3.7-12.8-9.8-12.8s-9.85,4.7-9.85,12.8,3.7,12.8,9.85,12.8,9.8-4.75,9.8-12.8Z"/>
        <path class="cls-2" d="m408.84,17.95c0,10.8-6.45,17.95-17.05,17.95s-17.05-7.15-17.05-17.95,6.4-17.95,17.05-17.95,17.05,7.1,17.05,17.95Zm-7.25,0c0-8.1-3.7-12.8-9.8-12.8s-9.85,4.7-9.85,12.8,3.7,12.8,9.85,12.8,9.8-4.75,9.8-12.8Z"/>
        <path class="cls-2" d="m459.29,35.2h-6.9v-15.95c0-3.6,0-8.2.1-11.8-.85,3.6-2.1,8.2-3.2,11.75l-4.85,16h-7.5l-4.95-16.05c-1.05-3.5-2.3-8.1-3.1-11.65.1,3.6.1,8.15.1,11.75v15.95h-6.9V.7h10.9l7.8,28.15,7.8-28.15h10.7v34.5Z"/>
        <path class="cls-2" d="m498.34,10.85h-7.05c-.4-3.5-2.35-5.7-5.95-5.7-2.75,0-4.85,1.3-4.85,4.1s1.85,4.35,7.35,5.65c7.6,1.75,11,5.25,11,10.8,0,6.5-5.95,10.2-12.75,10.2-8.25,0-13.65-3.65-14.3-10.9h7.05c.75,3.8,3.65,5.75,7.15,5.75,3.15,0,5.65-1.7,5.65-4.35,0-2.9-1.8-4.6-6.9-5.8-7.05-1.7-11.5-4.15-11.5-10.5s5.75-10.1,12.35-10.1c8.25,0,12,4.7,12.75,10.85Z"/>
      </g>
      <g>
        <path class="cls-2" d="m122.79,51.5c0,2.67-1.81,4.16-3.91,4.41-.71.08-1.26.1-2.1.1h-2.12v5.46h-2.9v-14.49h5.02c.84,0,1.39.02,2.1.1,2.2.25,3.91,1.74,3.91,4.41Zm-3.04,0c0-1.36-.71-2.02-1.72-2.16-.31-.04-.76-.06-1.28-.06h-2.08v4.45h2.08c.52,0,.97-.02,1.28-.06,1.01-.15,1.72-.8,1.72-2.16Z"/>
        <path class="cls-2" d="m141.46,61.47h-3.17c-.36-.99-.57-1.87-.71-3.23-.19-1.55-.78-2.5-1.95-2.58-.4-.02-.76-.02-1.13-.02h-1.68v5.84h-2.9v-14.49h5.29c.84,0,1.39.02,2.1.1,2.1.25,3.8,1.34,3.8,3.84,0,1.87-1.11,3.04-2.83,3.53,1.43.55,1.97,1.74,2.14,3.36.19,1.76.46,2.83,1.05,3.65Zm-6.66-8c.5,0,.86,0,1.18-.02,1.15-.1,2.08-.67,2.08-2.08s-.78-1.91-1.91-2.06c-.34-.04-.69-.06-1.22-.06h-2.12v4.22h1.99Z"/>
        <path class="cls-2" d="m159.16,61.47h-10.46v-14.49h10.25v2.27h-7.35v3.82h6.82v2.29h-6.82v3.82h7.56v2.29Z"/>
        <path class="cls-2" d="m169.6,53.08h6.61v2.29h-6.61v6.11h-2.9v-14.49h10.25v2.27h-7.35v3.82Z"/>
        <path class="cls-2" d="m186.55,57.11l-1.45,4.37h-3.09l5.23-14.49h3.63l5.12,14.49h-3.15l-1.43-4.37h-4.87Zm.73-2.29h3.4l-1.68-5.35-1.72,5.35Z"/>
        <path class="cls-2" d="m214.08,57.15c0,2.69-2.04,3.97-3.97,4.24-.73.08-1.2.08-2.02.08h-5.27v-14.49h5.19c.73,0,1.15,0,1.87.08,2.35.29,3.65,1.66,3.65,3.61,0,1.49-.8,2.48-2.25,2.98,1.87.48,2.79,1.62,2.79,3.49Zm-8.36-4.22h2.18c.36,0,.69-.02,1.03-.06,1.05-.17,1.57-.76,1.57-1.81s-.67-1.62-1.64-1.74c-.34-.04-.71-.06-1.05-.06h-2.1v3.67Zm5.31,4.24c0-1.34-.82-1.91-1.87-2.02-.36-.04-.69-.06-1.03-.06h-2.41v4.09h2.52c.34,0,.69,0,.97-.02,1.01-.08,1.83-.78,1.83-1.99Z"/>
        <path class="cls-2" d="m243.28,54.08v7.39h-2.33l-.19-2.35-.65,1.47c-.82.8-1.93,1.18-3.53,1.18-4.03,0-6.57-2.86-6.57-7.45s3.09-7.62,7.14-7.62,5.96,2.14,6.26,5l.02.21h-2.9l-.04-.21c-.36-1.78-1.45-2.83-3.38-2.83-2.35,0-4.03,1.99-4.03,5.29,0,3.61,1.68,5.46,3.95,5.46,1.87,0,3.19-1.22,3.49-3.25h-3.07v-2.27h5.84Z"/>
        <path class="cls-2" d="m254.33,57.11l-1.45,4.37h-3.09l5.23-14.49h3.63l5.12,14.49h-3.15l-1.43-4.37h-4.87Zm.74-2.29h3.4l-1.68-5.35-1.72,5.35Z"/>
        <path class="cls-2" d="m282.16,61.47h-3.17c-.36-.99-.57-1.87-.71-3.23-.19-1.55-.78-2.5-1.95-2.58-.4-.02-.76-.02-1.13-.02h-1.68v5.84h-2.9v-14.49h5.29c.84,0,1.39.02,2.1.1,2.1.25,3.8,1.34,3.8,3.84,0,1.87-1.11,3.04-2.83,3.53,1.43.55,1.97,1.74,2.14,3.36.19,1.76.46,2.83,1.05,3.65Zm-6.66-8c.5,0,.86,0,1.18-.02,1.15-.1,2.08-.67,2.08-2.08s-.78-1.91-1.91-2.06c-.34-.04-.69-.06-1.22-.06h-2.12v4.22h2Z"/>
        <path class="cls-2" d="m302.21,54.04c0,4.43-2.65,6.95-6.01,7.35-.73.08-1.07.08-1.85.08h-4.96v-14.49h5c.78,0,1.11,0,1.85.08,3.36.4,5.96,2.54,5.96,6.97Zm-3.07.04c0-2.86-1.38-4.47-3.53-4.75-.48-.06-.9-.08-1.55-.08h-1.76v9.93h1.72c.63,0,1.07,0,1.53-.06,2.16-.27,3.59-2.08,3.59-5.04Z"/>
        <path class="cls-2" d="m320.27,61.47h-10.46v-14.49h10.25v2.27h-7.35v3.82h6.82v2.29h-6.82v3.82h7.56v2.29Z"/>
        <path class="cls-2" d="m336.57,61.47l-5.96-11c.08,1.57.11,3.23.11,4.45v6.55h-2.9v-14.49h3.84l6.09,11.21c-.08-1.55-.11-3.32-.11-4.56v-6.66h2.88l.02,14.49h-3.97Z"/>
        <path class="cls-2" d="m368.99,51.5c0,2.67-1.81,4.16-3.91,4.41-.71.08-1.26.1-2.1.1h-2.12v5.46h-2.9v-14.49h5.02c.84,0,1.39.02,2.1.1,2.2.25,3.91,1.74,3.91,4.41Zm-3.04,0c0-1.36-.71-2.02-1.72-2.16-.32-.04-.76-.06-1.28-.06h-2.08v4.45h2.08c.53,0,.97-.02,1.28-.06,1.01-.15,1.72-.8,1.72-2.16Z"/>
        <path class="cls-2" d="m389.63,54.23c0,4.54-2.71,7.54-7.16,7.54s-7.16-3-7.16-7.54,2.69-7.54,7.16-7.54,7.16,2.98,7.16,7.54Zm-3.04,0c0-3.4-1.55-5.38-4.12-5.38s-4.14,1.97-4.14,5.38,1.55,5.38,4.14,5.38,4.12-1.99,4.12-5.38Z"/>
        <path class="cls-2" d="m410.05,54.04c0,4.43-2.65,6.95-6.01,7.35-.73.08-1.07.08-1.85.08h-4.96v-14.49h5c.78,0,1.11,0,1.85.08,3.36.4,5.96,2.54,5.96,6.97Zm-3.07.04c0-2.86-1.38-4.47-3.53-4.75-.48-.06-.9-.08-1.55-.08h-1.76v9.93h1.72c.63,0,1.07,0,1.53-.06,2.16-.27,3.59-2.08,3.59-5.04Z"/>
        <path class="cls-2" d="m427.81,51.25h-2.96c-.17-1.47-.99-2.39-2.5-2.39-1.15,0-2.04.55-2.04,1.72s.78,1.83,3.09,2.37c3.19.73,4.62,2.2,4.62,4.54,0,2.73-2.5,4.28-5.35,4.28-3.46,0-5.73-1.53-6-4.58h2.96c.31,1.6,1.53,2.41,3,2.41,1.32,0,2.37-.71,2.37-1.83,0-1.22-.76-1.93-2.9-2.44-2.96-.71-4.83-1.74-4.83-4.41s2.41-4.24,5.19-4.24c3.46,0,5.04,1.97,5.35,4.56Z"/>
      </g>
      <g>
        <rect class="cls-1" y="51.97" width="100" height="3"/>
        <rect class="cls-1" x="439.79" y="51.97" width="100" height="3"/>
      </g>
    </g>
  </g>
</svg>